<svg width="144" height="43" viewBox="0 0 144 43" fill="none" xmlns="http://www.w3.org/2000/svg">
<g clip-path="url(#clip0_2102_51)">
<path d="M8.72423 16.4624C9.23405 17.8865 9.74625 19.3393 10.2561 20.8161C10.7707 22.2977 11.2996 23.772 11.8477 25.2345L11.9243 25.4379H13.2144L13.2886 25.2273C13.8008 23.7673 14.3034 22.2929 14.7965 20.8113L16.2469 16.4552L22.1301 0.0287218C21.7687 0.00957392 21.4025 0 21.0339 0C14.8061 0 9.2149 2.70703 5.36379 7.00811L8.72423 16.4624Z" fill="black"/>
<path d="M26.5557 0.737177V17.5681H25.3182V8.03011C25.3182 6.90039 25.335 5.70843 25.3733 4.45186C25.4092 3.19289 25.4642 1.91956 25.536 0.624683C25.5384 0.579207 25.5408 0.536125 25.5432 0.490648C24.8802 0.34704 24.2077 0.234546 23.5231 0.153168L21.5341 5.84486L13.2288 28.7553H11.8262L4.34177 8.24313C1.62039 11.7879 0 16.2206 0 21.0339C0 32.6494 9.41834 42.0678 21.0339 42.0678C23.3125 42.0678 25.5025 41.7016 27.5585 41.0314H19.5715V40.0668L34.2244 18.8103L35.6868 18.8199L21.1201 40.0668H29.9903C37.1277 36.7016 42.0678 29.447 42.0678 21.0339C42.0678 11.3283 35.4929 3.16417 26.5557 0.737177ZM32.0894 19.7821H20.8113V18.8103H32.8529L32.0894 19.7821Z" fill="black"/>
</g>
<g clip-path="url(#clip1_2102_51)">
<path d="M55.5833 38.8199C55.5833 38.843 55.5787 38.8614 55.5695 38.8753C55.5603 38.8891 55.5419 38.903 55.5097 38.9122C55.4821 38.9215 55.4499 38.9307 55.4039 38.9353C55.3625 38.94 55.3073 38.9446 55.2383 38.9446C55.1739 38.9446 55.1186 38.94 55.0772 38.9353C55.0312 38.9307 54.9944 38.9215 54.9714 38.9122C54.9438 38.903 54.9254 38.8891 54.9162 38.8753C54.907 38.8614 54.8978 38.8383 54.8978 38.8199V34.3164H54.8886L53.076 38.8383C53.0668 38.8568 53.0576 38.8753 53.0392 38.8845C53.0254 38.8984 53.0024 38.9076 52.9748 38.9215C52.9472 38.9307 52.915 38.9353 52.8736 38.94C52.8368 38.9446 52.7908 38.9446 52.7356 38.9446C52.6804 38.9446 52.6298 38.94 52.593 38.9353C52.5562 38.9307 52.5194 38.9215 52.4918 38.9122C52.4642 38.903 52.4458 38.8938 52.432 38.8799C52.4182 38.8661 52.409 38.8522 52.4044 38.8337L50.6792 34.3164H50.6746V38.8199C50.6746 38.843 50.67 38.8614 50.6608 38.8753C50.6516 38.8891 50.6332 38.903 50.601 38.9122C50.5734 38.9215 50.5366 38.9307 50.4952 38.9353C50.4492 38.94 50.3939 38.9446 50.3249 38.9446C50.2605 38.9446 50.2053 38.94 50.1593 38.9353C50.1133 38.9307 50.0811 38.9215 50.0535 38.9122C50.0305 38.903 50.0075 38.8891 49.9983 38.8753C49.9891 38.8614 49.9845 38.8383 49.9845 38.8199V34.067C49.9845 33.9561 50.0121 33.873 50.0719 33.8268C50.1317 33.7806 50.1961 33.7575 50.2697 33.7575H50.693C50.7758 33.7575 50.854 33.7667 50.9184 33.7806C50.9828 33.7945 51.0426 33.8222 51.0886 33.8545C51.1392 33.8915 51.176 33.933 51.2082 33.9838C51.2404 34.0393 51.268 34.0993 51.291 34.1732L52.7632 37.9192H52.7816L54.3136 34.1871C54.3412 34.1085 54.3734 34.0393 54.4102 33.9838C54.447 33.9284 54.4838 33.8822 54.5252 33.8499C54.5666 33.8176 54.6126 33.7945 54.6632 33.776C54.7138 33.7621 54.7736 33.7575 54.8426 33.7575H55.2843C55.3257 33.7575 55.3625 33.7621 55.3993 33.776C55.4361 33.7898 55.4683 33.8037 55.4913 33.8314C55.5143 33.8591 55.5373 33.8915 55.5557 33.9284C55.5695 33.97 55.5787 34.0115 55.5787 34.0716V38.8199H55.5833Z" fill="black"/>
<path d="M61.0119 38.6813C61.0349 38.7414 61.0441 38.7876 61.0487 38.8199C61.0487 38.8568 61.0395 38.8846 61.0211 38.903C60.9981 38.9215 60.9659 38.9354 60.9153 38.94C60.8646 38.9446 60.8002 38.9492 60.7174 38.9492C60.6346 38.9492 60.5702 38.9492 60.5196 38.9446C60.469 38.94 60.4368 38.9354 60.4092 38.9261C60.3862 38.9169 60.3632 38.903 60.354 38.8892C60.3448 38.8753 60.331 38.8522 60.3218 38.8291L59.8801 37.5728H57.7409L57.3177 38.8153C57.3085 38.8384 57.2993 38.8615 57.2855 38.8753C57.2717 38.8938 57.2533 38.9076 57.2257 38.9215C57.2027 38.9307 57.1659 38.94 57.1199 38.9446C57.0738 38.9492 57.014 38.9538 56.9358 38.9538C56.8576 38.9538 56.7978 38.9492 56.7472 38.9446C56.6966 38.94 56.6644 38.9261 56.646 38.9076C56.6276 38.8892 56.6184 38.8615 56.6184 38.8245C56.6184 38.7876 56.6322 38.7414 56.6506 38.6813L58.3758 33.8776C58.385 33.8499 58.3988 33.8268 58.4172 33.8083C58.4356 33.7899 58.4586 33.776 58.4908 33.7621C58.523 33.7529 58.5644 33.7437 58.6196 33.7391C58.6702 33.7344 58.7346 33.7344 58.8174 33.7344C58.9002 33.7344 58.9738 33.7391 59.0291 33.7391C59.0843 33.7437 59.1303 33.7483 59.1625 33.7621C59.1993 33.7714 59.2223 33.7899 59.2407 33.8083C59.2591 33.8268 59.2729 33.8545 59.2821 33.8822L61.0119 38.6813ZM58.799 34.4411L57.9111 37.0185H59.7007L58.799 34.4411Z" fill="black"/>
<path d="M62.76 38.8199C62.76 38.843 62.7554 38.8615 62.7462 38.8753C62.737 38.8892 62.7186 38.903 62.691 38.9123C62.6634 38.9215 62.6266 38.9307 62.5852 38.9354C62.5392 38.94 62.484 38.9446 62.4196 38.9446C62.3552 38.9446 62.3 38.94 62.254 38.9354C62.208 38.9307 62.1712 38.9215 62.1482 38.9123C62.1206 38.903 62.1022 38.8892 62.093 38.8753C62.0838 38.8615 62.0792 38.8384 62.0792 38.8199V33.8591C62.0792 33.8407 62.0838 33.8176 62.0976 33.8037C62.1114 33.7899 62.1298 33.776 62.1574 33.7668C62.185 33.7575 62.2218 33.7483 62.2678 33.7437C62.3138 33.7391 62.3644 33.7344 62.4242 33.7344C62.4886 33.7344 62.5438 33.7391 62.5898 33.7437C62.6312 33.7483 62.668 33.7575 62.6956 33.7668C62.7232 33.776 62.7416 33.7899 62.7508 33.8037C62.76 33.8176 62.7646 33.8407 62.7646 33.8591V38.8199H62.76Z" fill="black"/>
<path d="M69.3387 38.6351C69.3387 38.6859 69.3341 38.7275 69.3295 38.7644C69.3249 38.8014 69.3157 38.8291 69.3065 38.8522C69.2927 38.8753 69.2789 38.8938 69.2605 38.903C69.2421 38.9122 69.2237 38.9169 69.2007 38.9169H66.1598C66.0908 38.9169 66.0356 38.8984 65.9942 38.8522C65.9528 38.8106 65.9298 38.7413 65.9298 38.649V38.5012C65.9298 38.4642 65.9344 38.4365 65.9344 38.4042C65.939 38.3764 65.9482 38.3441 65.9574 38.3118C65.9712 38.2794 65.9896 38.2425 66.0126 38.2009C66.0356 38.1594 66.0678 38.1132 66.1 38.0577L68.4739 34.3256H66.1276C66.1 34.3256 66.077 34.321 66.0586 34.3118C66.0402 34.3025 66.0264 34.2841 66.0126 34.261C66.0034 34.2379 65.9942 34.2102 65.9896 34.1732C65.985 34.1363 65.9804 34.0947 65.9804 34.0485C65.9804 33.9931 65.9804 33.9469 65.9896 33.9146C65.9942 33.8776 66.0034 33.8453 66.0126 33.8222C66.0264 33.7991 66.0402 33.7806 66.0586 33.7714C66.077 33.7621 66.1 33.7575 66.1276 33.7575H68.9937C69.0627 33.7575 69.1225 33.776 69.1639 33.8176C69.2053 33.8591 69.2237 33.9238 69.2237 34.0069V34.164C69.2237 34.2055 69.2237 34.2425 69.2145 34.2794C69.2099 34.3118 69.2007 34.3441 69.1869 34.3811C69.1731 34.418 69.1547 34.455 69.1317 34.4919C69.1087 34.5335 69.0811 34.5797 69.0443 34.6305L66.6797 38.3441H69.1961C69.2421 38.3441 69.2743 38.3672 69.2973 38.4134C69.3295 38.4596 69.3387 38.5335 69.3387 38.6351Z" fill="black"/>
<path d="M74.2061 38.6813C74.2291 38.7414 74.2383 38.7876 74.2429 38.8199C74.2429 38.8568 74.2337 38.8846 74.2153 38.903C74.1923 38.9215 74.16 38.9354 74.1094 38.94C74.0588 38.9446 73.9944 38.9492 73.9116 38.9492C73.8288 38.9492 73.7644 38.9492 73.7138 38.9446C73.6632 38.94 73.631 38.9354 73.6034 38.9261C73.5804 38.9169 73.5574 38.903 73.5482 38.8892C73.539 38.8753 73.5252 38.8522 73.516 38.8291L73.0743 37.5728H70.9351L70.5119 38.8153C70.5027 38.8384 70.4935 38.8615 70.4797 38.8753C70.4659 38.8938 70.4475 38.9076 70.4199 38.9215C70.3969 38.9307 70.36 38.94 70.314 38.9446C70.268 38.9492 70.2082 38.9538 70.13 38.9538C70.0518 38.9538 69.992 38.9492 69.9414 38.9446C69.8908 38.94 69.8586 38.9261 69.8402 38.9076C69.8218 38.8892 69.8126 38.8615 69.8126 38.8245C69.8126 38.7876 69.8264 38.7414 69.8448 38.6813L71.57 33.8776C71.5792 33.8499 71.593 33.8268 71.6114 33.8083C71.6298 33.7899 71.6528 33.776 71.685 33.7621C71.7172 33.7529 71.7586 33.7437 71.8138 33.7391C71.8644 33.7344 71.9288 33.7344 72.0116 33.7344C72.0944 33.7344 72.168 33.7391 72.2232 33.7391C72.2785 33.7437 72.3245 33.7483 72.3567 33.7621C72.3935 33.7714 72.4165 33.7899 72.4349 33.8083C72.4533 33.8268 72.4671 33.8545 72.4763 33.8822L74.2061 38.6813ZM71.9932 34.4411L71.1053 37.0185H72.8949L71.9932 34.4411Z" fill="black"/>
<path d="M79.492 36.2795C79.492 36.6998 79.4414 37.0739 79.3448 37.4111C79.2436 37.7483 79.101 38.0347 78.9031 38.2702C78.7099 38.5058 78.4661 38.6859 78.1671 38.8153C77.8726 38.94 77.5322 39.0046 77.1366 39.0046C76.7501 39.0046 76.4143 38.9446 76.1337 38.8291C75.853 38.7136 75.6184 38.5427 75.4344 38.3257C75.2504 38.1039 75.1123 37.8314 75.0203 37.5035C74.9329 37.1755 74.8869 36.8014 74.8869 36.3718C74.8869 35.9654 74.9375 35.5959 75.0341 35.2633C75.1308 34.9307 75.278 34.649 75.4758 34.4134C75.6736 34.1825 75.9174 34.0023 76.2119 33.873C76.5063 33.7483 76.8467 33.6836 77.2424 33.6836C77.6196 33.6836 77.9508 33.7391 78.2315 33.8545C78.5121 33.97 78.7467 34.1363 78.9307 34.358C79.1194 34.5797 79.2574 34.8476 79.3494 35.1709C79.4414 35.4942 79.492 35.8638 79.492 36.2795ZM78.7697 36.3257C78.7697 36.03 78.7421 35.7621 78.6915 35.5081C78.6409 35.2587 78.5535 35.037 78.4339 34.8522C78.3143 34.6675 78.1533 34.5243 77.9508 34.418C77.7484 34.3118 77.5 34.261 77.2056 34.261C76.9111 34.261 76.6581 34.3164 76.4603 34.4319C76.2579 34.5427 76.0969 34.6906 75.968 34.8799C75.8438 35.0647 75.7518 35.2864 75.7012 35.5358C75.646 35.7852 75.6184 36.0439 75.6184 36.321C75.6184 36.6259 75.6414 36.903 75.692 37.1617C75.7426 37.4157 75.8254 37.6374 75.945 37.8222C76.0646 38.0069 76.2257 38.1501 76.4235 38.2518C76.6213 38.3534 76.8743 38.4042 77.178 38.4042C77.477 38.4042 77.73 38.3488 77.9324 38.2379C78.1349 38.127 78.3005 37.9746 78.4247 37.7852C78.5489 37.5959 78.6363 37.3742 78.6915 37.1247C78.7421 36.8707 78.7697 36.6074 78.7697 36.3257Z" fill="black"/>
<path d="M86.2593 38.8199C86.2593 38.843 86.2547 38.8614 86.2501 38.8753C86.2409 38.8891 86.2271 38.903 86.1995 38.9169C86.1719 38.9307 86.1351 38.9353 86.0891 38.94C86.0431 38.9446 85.9787 38.9492 85.8959 38.9492C85.8269 38.9492 85.7717 38.9446 85.7257 38.94C85.6797 38.9353 85.6475 38.9261 85.6199 38.9169C85.5923 38.903 85.5739 38.8891 85.5601 38.8661C85.5462 38.8476 85.5324 38.8199 85.5232 38.7875L85.0494 37.5681C84.9942 37.4296 84.9344 37.3049 84.8746 37.1848C84.8148 37.0693 84.7458 36.9723 84.663 36.8845C84.5801 36.8014 84.4835 36.7367 84.3731 36.6905C84.2627 36.6443 84.1293 36.6213 83.9683 36.6213H83.5128V38.8245C83.5128 38.8476 83.5082 38.8661 83.4944 38.8799C83.4806 38.8938 83.4622 38.9076 83.4392 38.9169C83.4162 38.9261 83.3794 38.9353 83.338 38.94C83.292 38.9446 83.2368 38.9492 83.1724 38.9492C83.1034 38.9492 83.0528 38.9446 83.0068 38.94C82.9608 38.9353 82.9286 38.9261 82.901 38.9169C82.8734 38.9076 82.855 38.8938 82.8458 38.8799C82.8366 38.8661 82.832 38.843 82.832 38.8245V34.0346C82.832 33.9284 82.8596 33.8591 82.9148 33.8176C82.97 33.776 83.0252 33.7575 83.0896 33.7575H84.1845C84.3133 33.7575 84.4237 33.7621 84.5065 33.7667C84.5939 33.7714 84.6722 33.7806 84.7412 33.7898C84.939 33.8268 85.1138 33.8776 85.2702 33.9561C85.422 34.03 85.5508 34.127 85.6521 34.2379C85.7579 34.3534 85.8315 34.4827 85.8867 34.6305C85.9373 34.7783 85.9649 34.94 85.9649 35.1201C85.9649 35.2956 85.9419 35.448 85.8959 35.5866C85.8499 35.7252 85.7809 35.8453 85.6935 35.9515C85.6061 36.0577 85.5002 36.1501 85.3806 36.224C85.2564 36.3025 85.123 36.3672 84.9712 36.418C85.054 36.455 85.1322 36.5012 85.2012 36.5612C85.2702 36.6166 85.3346 36.6859 85.3944 36.7644C85.4542 36.843 85.5094 36.9353 85.5647 37.0416C85.6199 37.1478 85.6705 37.2633 85.7257 37.3926L86.1903 38.5289C86.2271 38.6259 86.2501 38.6905 86.2593 38.7275C86.2501 38.7691 86.2593 38.7968 86.2593 38.8199ZM85.2288 35.1894C85.2288 34.9861 85.1828 34.8152 85.0954 34.6767C85.008 34.5381 84.8562 34.4365 84.6446 34.3764C84.5755 34.358 84.5019 34.3441 84.4191 34.3349C84.3363 34.3256 84.2259 34.3256 84.0925 34.3256H83.5174V36.067H84.1845C84.3639 36.067 84.5203 36.0439 84.6538 36.0023C84.7872 35.9561 84.893 35.8961 84.9804 35.8176C85.0678 35.739 85.1322 35.6467 85.1736 35.5404C85.2058 35.4296 85.2288 35.3141 85.2288 35.1894Z" fill="black"/>
<path d="M91.3245 37.0139C91.3245 37.328 91.2785 37.6097 91.1864 37.8545C91.0944 38.0993 90.9656 38.3072 90.7954 38.4781C90.6252 38.649 90.4182 38.7783 90.1743 38.8661C89.9305 38.9538 89.6545 38.9954 89.3462 38.9954C89.061 38.9954 88.8034 38.9538 88.5688 38.8707C88.3341 38.7875 88.1363 38.6675 87.9661 38.5058C87.8005 38.3441 87.6717 38.1409 87.5797 37.9007C87.4923 37.6559 87.4463 37.3788 87.4463 37.0601V33.8499C87.4463 33.8314 87.4509 33.8083 87.4601 33.7945C87.4693 33.7806 87.4877 33.7668 87.5153 33.7575C87.5383 33.7483 87.5751 33.739 87.6165 33.7344C87.6579 33.7298 87.7177 33.7252 87.7867 33.7252C87.8511 33.7252 87.9063 33.7298 87.9477 33.7344C87.9937 33.739 88.0259 33.7483 88.0535 33.7575C88.0765 33.7668 88.0995 33.7806 88.1087 33.7945C88.1179 33.8083 88.1225 33.8314 88.1225 33.8499V36.9769C88.1225 37.2171 88.1501 37.425 88.2099 37.6051C88.2697 37.7852 88.3525 37.933 88.463 38.0485C88.5734 38.1686 88.7068 38.2564 88.8586 38.3164C89.015 38.3765 89.1852 38.4042 89.3831 38.4042C89.5809 38.4042 89.7603 38.3765 89.9121 38.3164C90.0685 38.2564 90.1973 38.1686 90.3078 38.0531C90.4136 37.933 90.4964 37.7899 90.5562 37.619C90.6114 37.4434 90.639 37.2448 90.639 37.0093V33.8499C90.639 33.8314 90.6436 33.8083 90.6528 33.7945C90.662 33.7806 90.6804 33.7668 90.708 33.7575C90.7356 33.7483 90.7724 33.739 90.8138 33.7344C90.8598 33.7298 90.915 33.7252 90.9794 33.7252C91.0438 33.7252 91.099 33.7298 91.1404 33.7344C91.1818 33.739 91.2186 33.7483 91.2463 33.7575C91.2693 33.7668 91.2923 33.7806 91.3015 33.7945C91.3153 33.8083 91.3199 33.8314 91.3199 33.8499V37.0139H91.3245Z" fill="black"/>
<path d="M96.7714 38.6397C96.7714 38.6952 96.7622 38.7413 96.7438 38.7737C96.7254 38.8106 96.7024 38.843 96.6748 38.8661C96.6472 38.8892 96.615 38.9076 96.5782 38.9169C96.5414 38.9261 96.5092 38.9353 96.4724 38.9353H96.247C96.178 38.9353 96.1136 38.9261 96.0584 38.9122C96.0031 38.8984 95.9525 38.8707 95.9065 38.8337C95.8605 38.7968 95.8099 38.7413 95.7639 38.6767C95.7133 38.612 95.6627 38.5243 95.6121 38.4226L94.0387 35.4804C93.9559 35.3279 93.8731 35.1709 93.7903 35.0046C93.7075 34.8383 93.6293 34.6767 93.5557 34.5196H93.5465C93.5511 34.709 93.5557 34.9076 93.5603 35.1062C93.5603 35.3049 93.5649 35.5035 93.5649 35.7021V38.8199C93.5649 38.8383 93.5603 38.8568 93.5511 38.8753C93.5373 38.8938 93.5189 38.9076 93.4913 38.9169C93.4683 38.9261 93.4315 38.9353 93.3855 38.94C93.3395 38.9446 93.2843 38.9492 93.2199 38.9492C93.1554 38.9492 93.0956 38.9446 93.0542 38.94C93.0082 38.9353 92.976 38.9261 92.9484 38.9169C92.9208 38.9076 92.907 38.8938 92.8932 38.8753C92.884 38.8568 92.8748 38.8383 92.8748 38.8199V34.0485C92.8748 33.9423 92.9024 33.8637 92.9668 33.8222C93.0266 33.776 93.091 33.7529 93.1646 33.7529H93.5005C93.5787 33.7529 93.6477 33.7575 93.6983 33.7714C93.7535 33.7852 93.7995 33.8083 93.8409 33.836C93.8823 33.8637 93.9237 33.9099 93.9651 33.9654C94.0065 34.0208 94.0479 34.0901 94.0893 34.1686L95.2947 36.4365C95.3683 36.5751 95.4419 36.709 95.5109 36.843C95.5799 36.9723 95.6489 37.1062 95.7087 37.231C95.7731 37.3603 95.8375 37.485 95.9019 37.6097C95.9617 37.7344 96.0261 37.8591 96.086 37.9838H96.0906C96.086 37.776 96.0814 37.5543 96.0814 37.3279C96.0814 37.1016 96.0814 36.8799 96.0814 36.6721V33.8684C96.0814 33.8499 96.086 33.8314 96.0998 33.8176C96.109 33.8037 96.1274 33.7898 96.155 33.776C96.1826 33.7667 96.2148 33.7575 96.2608 33.7529C96.3068 33.7483 96.362 33.7437 96.431 33.7437C96.4908 33.7437 96.546 33.7483 96.592 33.7529C96.638 33.7575 96.6702 33.7667 96.6978 33.776C96.7208 33.7898 96.7392 33.8037 96.753 33.8176C96.7668 33.8314 96.7714 33.8499 96.7714 33.8684V38.6397Z" fill="black"/>
<path d="M102.237 38.6397C102.237 38.6952 102.228 38.7413 102.209 38.7737C102.191 38.8106 102.168 38.843 102.14 38.8661C102.113 38.8892 102.08 38.9076 102.044 38.9169C102.007 38.9261 101.975 38.9353 101.938 38.9353H101.712C101.643 38.9353 101.579 38.9261 101.524 38.9122C101.469 38.8984 101.418 38.8707 101.372 38.8337C101.326 38.7968 101.275 38.7413 101.229 38.6767C101.179 38.612 101.128 38.5243 101.077 38.4226L99.5041 35.4804C99.4213 35.3279 99.3385 35.1709 99.2557 35.0046C99.1729 34.8383 99.0947 34.6767 99.0211 34.5196H99.0119C99.0165 34.709 99.0211 34.9076 99.0257 35.1062C99.0257 35.3049 99.0303 35.5035 99.0303 35.7021V38.8199C99.0303 38.8383 99.0257 38.8568 99.0165 38.8753C99.0027 38.8938 98.9843 38.9076 98.9567 38.9169C98.9337 38.9261 98.8969 38.9353 98.8508 38.94C98.8048 38.9446 98.7496 38.9492 98.6852 38.9492C98.6208 38.9492 98.561 38.9446 98.5196 38.94C98.4736 38.9353 98.4414 38.9261 98.4138 38.9169C98.3862 38.9076 98.3724 38.8938 98.3586 38.8753C98.3494 38.8568 98.3402 38.8383 98.3402 38.8199V34.0485C98.3402 33.9423 98.3678 33.8637 98.4322 33.8222C98.492 33.776 98.5564 33.7529 98.63 33.7529H98.9659C99.0441 33.7529 99.1131 33.7575 99.1637 33.7714C99.2189 33.7852 99.2649 33.8083 99.3063 33.836C99.3477 33.8637 99.3891 33.9099 99.4305 33.9654C99.4719 34.0208 99.5133 34.0901 99.5547 34.1686L100.76 36.4365C100.834 36.5751 100.907 36.709 100.976 36.843C101.045 36.9723 101.114 37.1062 101.174 37.231C101.239 37.3603 101.303 37.485 101.367 37.6097C101.427 37.7344 101.492 37.8591 101.551 37.9838H101.556C101.551 37.776 101.547 37.5543 101.547 37.3279C101.547 37.1016 101.547 36.8799 101.547 36.6721V33.8684C101.547 33.8499 101.551 33.8314 101.565 33.8176C101.574 33.8037 101.593 33.7898 101.62 33.776C101.648 33.7667 101.68 33.7575 101.726 33.7529C101.772 33.7483 101.827 33.7437 101.896 33.7437C101.956 33.7437 102.011 33.7483 102.057 33.7529C102.103 33.7575 102.136 33.7667 102.163 33.776C102.186 33.7898 102.205 33.8037 102.218 33.8176C102.232 33.8314 102.237 33.8499 102.237 33.8684V38.6397Z" fill="black"/>
<path d="M104.496 38.8199C104.496 38.843 104.491 38.8615 104.482 38.8753C104.473 38.8892 104.454 38.903 104.427 38.9123C104.399 38.9215 104.362 38.9307 104.321 38.9354C104.275 38.94 104.22 38.9446 104.155 38.9446C104.091 38.9446 104.036 38.94 103.99 38.9354C103.944 38.9307 103.907 38.9215 103.884 38.9123C103.856 38.903 103.838 38.8892 103.829 38.8753C103.819 38.8615 103.815 38.8384 103.815 38.8199V33.8591C103.815 33.8407 103.819 33.8176 103.833 33.8037C103.847 33.7899 103.865 33.776 103.893 33.7668C103.921 33.7575 103.957 33.7483 104.003 33.7437C104.049 33.7391 104.1 33.7344 104.16 33.7344C104.224 33.7344 104.279 33.7391 104.325 33.7437C104.367 33.7483 104.404 33.7575 104.431 33.7668C104.459 33.776 104.477 33.7899 104.486 33.8037C104.496 33.8176 104.5 33.8407 104.5 33.8591V38.8199H104.496Z" fill="black"/>
<path d="M109.956 38.6397C109.956 38.6952 109.947 38.7413 109.929 38.7737C109.91 38.8106 109.887 38.843 109.86 38.8661C109.832 38.8892 109.8 38.9076 109.763 38.9169C109.726 38.9261 109.694 38.9353 109.657 38.9353H109.432C109.363 38.9353 109.299 38.9261 109.243 38.9122C109.188 38.8984 109.138 38.8707 109.092 38.8337C109.046 38.7968 108.995 38.7413 108.949 38.6767C108.898 38.612 108.848 38.5243 108.797 38.4226L107.224 35.4804C107.141 35.3279 107.058 35.1709 106.975 35.0046C106.892 34.8383 106.814 34.6767 106.741 34.5196H106.731C106.736 34.709 106.741 34.9076 106.745 35.1062C106.745 35.3049 106.75 35.5035 106.75 35.7021V38.8199C106.75 38.8383 106.745 38.8568 106.736 38.8753C106.722 38.8938 106.704 38.9076 106.676 38.9169C106.653 38.9261 106.616 38.9353 106.57 38.94C106.524 38.9446 106.469 38.9492 106.405 38.9492C106.34 38.9492 106.281 38.9446 106.239 38.94C106.193 38.9353 106.161 38.9261 106.133 38.9169C106.11 38.9076 106.092 38.8938 106.078 38.8753C106.069 38.8568 106.06 38.8383 106.06 38.8199V34.0485C106.06 33.9423 106.087 33.8637 106.152 33.8222C106.212 33.776 106.276 33.7529 106.35 33.7529H106.685C106.764 33.7529 106.833 33.7575 106.883 33.7714C106.938 33.7852 106.985 33.8083 107.026 33.836C107.067 33.8637 107.109 33.9099 107.15 33.9654C107.192 34.0208 107.233 34.0901 107.274 34.1686L108.48 36.4365C108.553 36.5751 108.627 36.709 108.696 36.843C108.765 36.9723 108.834 37.1062 108.894 37.231C108.958 37.3603 109.023 37.485 109.087 37.6097C109.147 37.7344 109.211 37.8591 109.271 37.9838H109.276C109.271 37.776 109.266 37.5543 109.266 37.3279C109.266 37.1016 109.266 36.8799 109.266 36.6721V33.8684C109.266 33.8499 109.271 33.8314 109.285 33.8176C109.294 33.8037 109.312 33.7898 109.34 33.776C109.368 33.7667 109.4 33.7575 109.446 33.7529C109.492 33.7483 109.547 33.7437 109.616 33.7437C109.676 33.7437 109.731 33.7483 109.777 33.7529C109.823 33.7575 109.855 33.7667 109.883 33.776C109.906 33.7898 109.924 33.8037 109.938 33.8176C109.952 33.8314 109.956 33.8499 109.956 33.8684V38.6397Z" fill="black"/>
<path d="M115.394 34.4596C115.394 34.5104 115.39 34.5566 115.385 34.5935C115.38 34.6305 115.371 34.6628 115.362 34.6905C115.353 34.7136 115.339 34.7367 115.321 34.746C115.307 34.7552 115.288 34.7644 115.27 34.7644C115.238 34.7644 115.187 34.7413 115.109 34.6859C115.035 34.6351 114.934 34.5797 114.81 34.5196C114.686 34.4596 114.534 34.4042 114.364 34.3534C114.189 34.3025 113.982 34.2795 113.747 34.2795C113.462 34.2795 113.209 34.3303 112.984 34.4365C112.758 34.5381 112.565 34.6813 112.413 34.8661C112.257 35.0508 112.137 35.2679 112.054 35.522C111.971 35.776 111.93 36.0485 111.93 36.3441C111.93 36.6721 111.976 36.9677 112.068 37.2217C112.16 37.4758 112.289 37.6929 112.45 37.8684C112.611 38.0439 112.804 38.1778 113.03 38.2656C113.255 38.3534 113.499 38.3995 113.766 38.3995C113.927 38.3995 114.088 38.3811 114.249 38.3395C114.41 38.3026 114.562 38.2425 114.704 38.164V36.6582H113.513C113.467 36.6582 113.434 36.6351 113.411 36.5889C113.388 36.5427 113.375 36.4735 113.375 36.3765C113.375 36.3256 113.379 36.2795 113.384 36.2471C113.388 36.2102 113.398 36.1825 113.411 36.1594C113.421 36.1363 113.434 36.1178 113.453 36.1086C113.471 36.0993 113.49 36.0947 113.513 36.0947H115.15C115.178 36.0947 115.21 36.0993 115.238 36.1086C115.265 36.1178 115.293 36.1363 115.316 36.1547C115.339 36.1778 115.357 36.2056 115.371 36.2425C115.385 36.2795 115.39 36.321 115.39 36.3718V38.3395C115.39 38.4088 115.38 38.4688 115.353 38.5196C115.33 38.5705 115.279 38.6166 115.201 38.6536C115.127 38.6905 115.026 38.7321 114.902 38.7783C114.778 38.8245 114.654 38.8614 114.525 38.8938C114.396 38.9261 114.262 38.9492 114.134 38.9631C114 38.9769 113.871 38.9862 113.743 38.9862C113.347 38.9862 112.988 38.9215 112.675 38.8014C112.362 38.6767 112.096 38.5012 111.879 38.2702C111.663 38.0393 111.498 37.7668 111.383 37.448C111.268 37.1293 111.212 36.7691 111.212 36.3765C111.212 35.9654 111.272 35.5959 111.396 35.2633C111.521 34.9307 111.695 34.6444 111.916 34.4134C112.142 34.1778 112.408 33.9977 112.726 33.8684C113.039 33.739 113.388 33.6744 113.77 33.6744C113.968 33.6744 114.152 33.6928 114.322 33.7252C114.497 33.7621 114.649 33.7991 114.782 33.8453C114.916 33.8915 115.026 33.9423 115.118 33.9977C115.21 34.0531 115.275 34.0993 115.307 34.1317C115.344 34.1686 115.367 34.2056 115.376 34.2517C115.39 34.3072 115.394 34.3718 115.394 34.4596Z" fill="black"/>
<path d="M122.355 38.1917C122.355 38.2333 122.355 38.2702 122.35 38.3026C122.35 38.3349 122.346 38.3626 122.336 38.3857C122.332 38.4088 122.323 38.4319 122.313 38.4504C122.304 38.4688 122.286 38.4919 122.258 38.5196C122.231 38.5427 122.175 38.5843 122.088 38.6397C122.005 38.6952 121.899 38.746 121.77 38.8014C121.642 38.8568 121.499 38.8984 121.338 38.9307C121.177 38.9677 120.998 38.9862 120.804 38.9862C120.473 38.9862 120.169 38.9307 119.898 38.8199C119.627 38.709 119.401 38.5427 119.208 38.3256C119.019 38.1039 118.872 37.836 118.771 37.5173C118.67 37.1986 118.615 36.8291 118.615 36.4088C118.615 35.9792 118.67 35.6005 118.78 35.2633C118.891 34.9307 119.047 34.6444 119.245 34.4088C119.443 34.1778 119.682 33.9977 119.958 33.873C120.234 33.7529 120.542 33.6882 120.878 33.6882C121.025 33.6882 121.172 33.7021 121.31 33.7298C121.448 33.7575 121.582 33.7945 121.697 33.836C121.816 33.8776 121.922 33.9284 122.014 33.9838C122.106 34.0393 122.171 34.0855 122.208 34.1224C122.244 34.1594 122.267 34.1871 122.277 34.2009C122.286 34.2194 122.295 34.2425 122.3 34.2656C122.304 34.2887 122.313 34.321 122.313 34.3534C122.318 34.3903 122.318 34.4273 122.318 34.4781C122.318 34.5289 122.313 34.5751 122.309 34.612C122.304 34.649 122.295 34.6813 122.286 34.7044C122.277 34.7275 122.263 34.7506 122.249 34.7598C122.235 34.7737 122.217 34.7783 122.194 34.7783C122.157 34.7783 122.106 34.7506 122.037 34.6998C121.973 34.649 121.885 34.5889 121.78 34.5289C121.674 34.4642 121.545 34.4088 121.398 34.358C121.251 34.3072 121.067 34.2795 120.855 34.2795C120.625 34.2795 120.418 34.3256 120.229 34.418C120.041 34.5104 119.88 34.6444 119.746 34.8245C119.613 35.0046 119.507 35.2171 119.438 35.4758C119.364 35.7344 119.328 36.0254 119.328 36.358C119.328 36.6859 119.364 36.9769 119.433 37.2263C119.502 37.4804 119.608 37.6882 119.737 37.8591C119.87 38.03 120.031 38.1547 120.225 38.2425C120.418 38.3303 120.634 38.3718 120.878 38.3718C121.085 38.3718 121.264 38.3487 121.416 38.2979C121.568 38.2471 121.701 38.1917 121.807 38.127C121.918 38.067 122.005 38.0069 122.074 37.9561C122.143 37.9053 122.198 37.8822 122.24 37.8822C122.258 37.8822 122.277 37.8868 122.286 37.8915C122.3 37.9007 122.309 37.9146 122.318 37.9377C122.327 37.9607 122.332 37.9931 122.336 38.0347C122.355 38.0808 122.355 38.1317 122.355 38.1917Z" fill="black"/>
<path d="M127.705 36.2795C127.705 36.6998 127.654 37.0739 127.558 37.4111C127.457 37.7483 127.314 38.0347 127.116 38.2702C126.918 38.5058 126.679 38.6859 126.38 38.8153C126.086 38.94 125.745 39.0046 125.35 39.0046C124.963 39.0046 124.627 38.9446 124.347 38.8291C124.066 38.7136 123.831 38.5427 123.647 38.3257C123.463 38.1039 123.325 37.8314 123.233 37.5035C123.146 37.1755 123.1 36.8014 123.1 36.3718C123.1 35.9654 123.151 35.5959 123.247 35.2633C123.344 34.9307 123.491 34.649 123.689 34.4134C123.887 34.1825 124.131 34.0023 124.425 33.873C124.719 33.7483 125.06 33.6836 125.455 33.6836C125.833 33.6836 126.164 33.7391 126.445 33.8545C126.725 33.97 126.96 34.1363 127.144 34.358C127.332 34.5797 127.47 34.8476 127.562 35.1709C127.654 35.4942 127.705 35.8638 127.705 36.2795ZM126.983 36.3257C126.983 36.03 126.955 35.7621 126.905 35.5081C126.854 35.2587 126.767 35.037 126.647 34.8522C126.527 34.6675 126.366 34.5243 126.164 34.418C125.962 34.3118 125.713 34.261 125.419 34.261C125.124 34.261 124.871 34.3164 124.673 34.4319C124.471 34.5427 124.31 34.6906 124.181 34.8799C124.057 35.0647 123.965 35.2864 123.914 35.5358C123.859 35.7852 123.831 36.0439 123.831 36.321C123.831 36.6259 123.854 36.903 123.905 37.1617C123.956 37.4203 124.038 37.6374 124.158 37.8222C124.278 38.0069 124.439 38.1501 124.637 38.2518C124.834 38.3534 125.087 38.4042 125.391 38.4042C125.69 38.4042 125.943 38.3488 126.146 38.2379C126.348 38.127 126.514 37.9746 126.638 37.7852C126.762 37.5959 126.849 37.3742 126.905 37.1247C126.955 36.8707 126.983 36.6074 126.983 36.3257Z" fill="black"/>
<path d="M131.698 34.0485C131.698 34.0993 131.698 34.1455 131.689 34.1778C131.685 34.2148 131.675 34.2471 131.662 34.2656C131.648 34.2887 131.634 34.3072 131.615 34.3164C131.597 34.3256 131.579 34.3303 131.56 34.3303H129.674V36.0855H131.459C131.477 36.0855 131.496 36.0901 131.514 36.0993C131.533 36.1085 131.546 36.1224 131.56 36.1455C131.574 36.164 131.583 36.1963 131.588 36.2286C131.592 36.2656 131.597 36.3118 131.597 36.3672C131.597 36.418 131.592 36.4596 131.588 36.4965C131.583 36.5335 131.574 36.5612 131.56 36.5843C131.546 36.6074 131.533 36.6259 131.514 36.6351C131.496 36.649 131.477 36.6536 131.459 36.6536H129.674V38.806C129.674 38.8245 129.669 38.843 129.66 38.8614C129.651 38.8799 129.633 38.8938 129.605 38.903C129.577 38.9122 129.545 38.9215 129.499 38.9261C129.453 38.9307 129.398 38.9353 129.334 38.9353C129.269 38.9353 129.214 38.9307 129.168 38.9261C129.122 38.9215 129.085 38.9122 129.062 38.903C129.035 38.8938 129.016 38.8799 129.007 38.8614C128.998 38.843 128.993 38.8245 128.993 38.806V34.0346C128.993 33.9284 129.021 33.8591 129.076 33.8176C129.131 33.776 129.186 33.7575 129.251 33.7575H131.565C131.583 33.7575 131.602 33.7621 131.62 33.7714C131.638 33.7806 131.652 33.7991 131.666 33.8222C131.68 33.8453 131.689 33.8776 131.694 33.9146C131.698 33.9561 131.698 34.0023 131.698 34.0485Z" fill="black"/>
<path d="M135.646 34.0485C135.646 34.0993 135.646 34.1455 135.636 34.1778C135.632 34.2148 135.623 34.2471 135.609 34.2656C135.595 34.2887 135.581 34.3072 135.563 34.3164C135.544 34.3256 135.526 34.3303 135.508 34.3303H133.621V36.0855H135.406C135.425 36.0855 135.443 36.0901 135.462 36.0993C135.48 36.1085 135.494 36.1224 135.508 36.1455C135.521 36.164 135.531 36.1963 135.535 36.2286C135.54 36.2656 135.544 36.3118 135.544 36.3672C135.544 36.418 135.54 36.4596 135.535 36.4965C135.531 36.5335 135.521 36.5612 135.508 36.5843C135.494 36.6074 135.48 36.6259 135.462 36.6351C135.443 36.649 135.425 36.6536 135.406 36.6536H133.621V38.806C133.621 38.8245 133.617 38.843 133.608 38.8614C133.598 38.8799 133.58 38.8938 133.552 38.903C133.525 38.9122 133.492 38.9215 133.446 38.9261C133.4 38.9307 133.345 38.9353 133.281 38.9353C133.216 38.9353 133.161 38.9307 133.115 38.9261C133.069 38.9215 133.032 38.9122 133.009 38.903C132.982 38.8938 132.963 38.8799 132.954 38.8614C132.945 38.843 132.94 38.8245 132.94 38.806V34.0346C132.94 33.9284 132.968 33.8591 133.023 33.8176C133.078 33.776 133.134 33.7575 133.198 33.7575H135.512C135.531 33.7575 135.549 33.7621 135.567 33.7714C135.586 33.7806 135.6 33.7991 135.613 33.8222C135.627 33.8453 135.636 33.8776 135.641 33.9146C135.646 33.9561 135.646 34.0023 135.646 34.0485Z" fill="black"/>
<path d="M139.754 38.6397C139.754 38.6905 139.754 38.7275 139.745 38.7644C139.74 38.8014 139.731 38.8291 139.717 38.8522C139.703 38.8753 139.689 38.8938 139.671 38.903C139.653 38.9123 139.634 38.9169 139.611 38.9169H137.141C137.081 38.9169 137.021 38.8984 136.966 38.8568C136.911 38.8153 136.883 38.7414 136.883 38.6397V34.03C136.883 33.9238 136.911 33.8545 136.966 33.8129C137.021 33.7714 137.076 33.7529 137.141 33.7529H139.584C139.607 33.7529 139.625 33.7575 139.643 33.7668C139.662 33.776 139.676 33.7945 139.685 33.8176C139.694 33.8407 139.703 33.873 139.712 33.9053C139.717 33.9423 139.722 33.9838 139.722 34.0393C139.722 34.0901 139.717 34.127 139.712 34.164C139.708 34.2009 139.699 34.2287 139.685 34.2517C139.676 34.2748 139.662 34.2887 139.643 34.3026C139.625 34.3118 139.607 34.3164 139.584 34.3164H137.569V35.9377H139.294C139.317 35.9377 139.335 35.9423 139.354 35.9561C139.372 35.9654 139.386 35.9838 139.4 36.0069C139.409 36.03 139.418 36.0577 139.423 36.0947C139.427 36.1317 139.432 36.1778 139.432 36.2287C139.432 36.2748 139.427 36.3164 139.423 36.3534C139.418 36.3903 139.409 36.418 139.4 36.4365C139.386 36.4596 139.372 36.4735 139.354 36.4827C139.335 36.4919 139.317 36.4965 139.294 36.4965H137.569V38.3441H139.611C139.63 38.3441 139.653 38.3487 139.671 38.358C139.689 38.3672 139.703 38.3857 139.717 38.4088C139.731 38.4319 139.74 38.4596 139.745 38.4965C139.749 38.5427 139.754 38.5889 139.754 38.6397Z" fill="black"/>
<path d="M143.931 38.6397C143.931 38.6905 143.931 38.7275 143.922 38.7644C143.917 38.8014 143.908 38.8291 143.894 38.8522C143.88 38.8753 143.867 38.8938 143.848 38.903C143.83 38.9123 143.811 38.9169 143.788 38.9169H141.318C141.258 38.9169 141.198 38.8984 141.143 38.8568C141.088 38.8153 141.06 38.7414 141.06 38.6397V34.03C141.06 33.9238 141.088 33.8545 141.143 33.8129C141.198 33.7714 141.254 33.7529 141.318 33.7529H143.761C143.784 33.7529 143.802 33.7575 143.821 33.7668C143.839 33.776 143.853 33.7945 143.862 33.8176C143.871 33.8407 143.88 33.873 143.89 33.9053C143.894 33.9423 143.899 33.9838 143.899 34.0393C143.899 34.0901 143.894 34.127 143.89 34.164C143.885 34.2009 143.876 34.2287 143.862 34.2517C143.853 34.2748 143.839 34.2887 143.821 34.3026C143.802 34.3118 143.784 34.3164 143.761 34.3164H141.746V35.9377H143.471C143.494 35.9377 143.512 35.9423 143.531 35.9561C143.549 35.9654 143.563 35.9838 143.577 36.0069C143.586 36.03 143.595 36.0577 143.6 36.0947C143.604 36.1317 143.609 36.1778 143.609 36.2287C143.609 36.2748 143.604 36.3164 143.6 36.3534C143.595 36.3903 143.586 36.418 143.577 36.4365C143.563 36.4596 143.549 36.4735 143.531 36.4827C143.512 36.4919 143.494 36.4965 143.471 36.4965H141.746V38.3441H143.788C143.807 38.3441 143.83 38.3487 143.848 38.358C143.867 38.3672 143.88 38.3857 143.894 38.4088C143.908 38.4319 143.917 38.4596 143.922 38.4965C143.931 38.5427 143.931 38.5889 143.931 38.6397Z" fill="black"/>
<path d="M78.2867 19.9284C78.2821 19.8776 78.2775 19.8314 78.2637 19.7806C78.0521 18.6582 77.5414 17.4619 76.8467 16.5658C76.1751 15.6975 75.3608 14.9353 74.3717 14.4365C73.3642 13.9284 72.1358 13.9377 71.0317 13.9469C70.5993 13.9515 69.4308 14.0808 69.1823 14.5566C69.0259 14.8568 69.0903 15.2356 69.1777 15.545C69.1777 15.545 69.3433 16.0762 69.9506 16.1455C70.3048 16.1871 70.7971 16.1871 71.4274 16.4088C71.2341 16.7367 70.9765 17.2587 71.2479 17.6051C71.3216 17.6975 71.4182 17.7621 71.524 17.8129C71.9656 18.0439 72.3429 18.1455 72.8167 18.2933C73.332 18.455 73.8288 18.6582 74.3073 18.903C75.1998 19.3649 76.0186 19.97 76.7823 20.6213C77.0446 20.8476 77.3988 21.1155 77.7484 20.9215C78.1579 20.6952 78.3235 20.3534 78.2867 19.9284Z" fill="black"/>
<path d="M58.6702 6.55196C58.109 6.10854 57.5891 6.22863 56.5034 6.75519C55.4223 7.27713 55.3395 9.29098 55.3395 9.29098C54.0559 13.9192 57.9479 13.3556 58.6702 13.157C59.3925 12.9538 59.5535 11.3464 59.7513 9.61431C59.9538 7.88221 59.2315 6.99537 58.6702 6.55196ZM56.945 10.2979C56.7058 10.4596 55.4223 10.7413 55.9421 9.0508C55.9421 9.0508 56.0617 8.60738 56.462 8.64895C56.8622 8.69052 57.2257 8.72747 57.1843 9.0508C57.1429 9.36951 57.1843 10.1363 56.945 10.2979Z" fill="black"/>
<path d="M136.685 9.82678C136.786 9.68359 136.892 9.54502 137.003 9.40646C137.104 9.28174 137.228 9.10623 137.334 8.98151C137.444 8.85218 137.472 8.7829 137.596 8.66281C137.72 8.54271 137.858 8.28405 137.955 8.23325C137.757 8.33486 137.205 8.74133 137.016 8.86142C136.842 9.00461 136.658 9.13856 136.501 9.30022C136.179 9.62355 135.903 9.99768 135.71 10.4226C135.521 10.8476 135.42 11.3141 135.429 11.7806C135.438 12.2425 135.549 12.709 135.802 13.0831C135.696 12.515 135.825 11.9284 135.977 11.3834C136.119 10.8291 136.359 10.2979 136.685 9.82678Z" fill="black"/>
<path d="M81.9901 14.8476C82.9516 15.3279 83.9499 15.7483 84.9804 16.0623C85.4404 16.2009 85.9051 16.3256 86.3789 16.3995C86.977 16.4965 87.9707 16.5196 88.0857 17.2864C88.1961 17.9977 87.9109 19.7529 87.0552 19.9561C86.9172 19.9884 86.7746 19.9607 86.6366 19.933C84.3961 19.4203 82.8826 17.6466 81.2816 16.1316C81.1206 15.9792 81.1252 15.7252 81.2586 15.3556C81.4656 14.9446 81.714 14.7783 81.9901 14.8476Z" fill="black"/>
<path d="M91.9915 5.05079C92.0559 4.69051 92.6632 4.43185 93.2429 4.43185C93.7627 4.49652 94.2044 4.72285 94.2044 5.14779L94.186 15.2864C95.6443 15.2864 96.1182 15.4111 97.0613 15.448C98.0136 15.485 97.9538 16.5658 97.9538 17.0508C97.9538 17.5727 97.6639 18.4596 97.1441 18.4596C95.9249 18.4596 95.4281 18.3302 94.2044 18.3302V26.478C95.4373 26.5104 96.1734 26.5427 97.8571 26.6074C98.6898 26.672 98.8646 27.679 98.7634 28.6028C98.699 29.1847 98.4414 29.448 97.8571 29.448C96.4954 29.448 94.9404 29.448 93.1877 29.3834C91.8581 29.3834 90.3676 29.448 88.6838 29.5127C88.0673 29.5127 87.7591 29.2494 87.7131 28.6674C87.6487 27.836 87.7039 26.7506 88.4906 26.672C89.268 26.6074 90.4366 26.575 91.9915 26.5104V18.3626C91.03 18.4319 90.0731 18.5889 89.107 18.5889C88.6516 18.5889 88.4215 17.4157 88.3893 16.8291C88.3893 16.3718 88.7022 15.5774 89.4153 15.5127C90.1927 15.448 91.0668 15.4157 91.9777 15.351L91.9915 5.05079Z" fill="black"/>
<path d="M106.294 10.358C105.807 10.358 105.522 10.4596 105.448 10.7598L105.411 12.2148L101.515 12.1917V10.9076C101.478 10.5889 101.146 10.4226 100.659 10.4226C100.208 10.4226 99.794 10.5889 99.6881 10.9261L99.7571 16.1778C99.7571 18.0069 101.326 18.9215 103.336 18.9215C105.416 18.9215 107.09 18.1178 107.09 16.3303L107.196 10.843C107.196 10.5473 106.883 10.3995 106.294 10.358ZM105.121 15.5589C104.762 16.1316 103.985 16.127 103.277 16.127C102.632 16.127 102.297 15.9977 101.906 15.5358C101.63 15.2125 101.561 14.9815 101.538 14.5935C101.524 14.3487 101.533 14.2979 101.519 14.0577C101.505 13.8776 101.639 13.8176 101.823 13.8176C102.637 13.8222 103.286 13.8961 104.095 13.8868C104.574 13.8776 105.522 13.7344 105.522 14.2471C105.522 14.8014 105.43 15.06 105.121 15.5589Z" fill="black"/>
<path d="M117.202 16.2286L117.041 17.2679C117.041 17.9838 115.224 18.5289 112.468 18.5289C112.565 18.7875 112.662 18.8984 112.79 19.1247C114.704 19.06 117.271 18.5196 120.123 18.4873C120.579 18.5843 120.873 19.2633 120.86 19.6466C120.841 20.1593 120.478 20.6028 120.027 20.6351C117.727 20.6351 115.546 20.575 113.6 20.6397C113.793 20.963 114.028 21.2263 114.221 21.485C114.285 21.6143 114.382 21.7113 114.446 21.776C114.474 21.8037 114.884 21.6743 114.939 21.6651C115.919 21.4665 116.88 21.4434 117.878 21.4896C118.306 21.5081 118.808 21.5265 119.19 21.7483C119.654 22.0162 119.544 22.8614 119.015 23.0138C118.794 23.0785 118.454 23 118.228 22.9815C117.924 22.9584 117.621 22.9353 117.317 22.9168C116.65 22.8707 115.983 22.8198 115.316 22.8198C115.965 23.545 116.669 23.9653 117.492 24.4827C118.348 25.0185 119.387 25.4342 120.234 25.9561C120.4 26.0577 120.63 26.3025 120.694 26.4873C120.827 26.866 120.308 27.6743 119.82 27.6743C119.093 27.6743 118.38 27.2586 117.75 26.9399C116.945 26.5335 116.218 25.9746 115.569 25.3418C115.422 25.194 113.793 23.4388 113.922 23.3418C113.402 23.7344 113.145 24.284 113.145 24.9353C113.145 26.7275 115.555 27.582 119.636 29.1432C120.068 29.3095 119.999 29.8406 119.852 30.1871C119.663 30.6443 119.107 31.3233 118.592 31.3233C117.717 31.3233 116.254 30.3718 113.986 28.7737C112.56 27.6651 111.815 26.3672 111.783 24.866C111.783 23.7575 112.206 22.9122 113.112 22.358C113.08 22.358 113.08 22.3256 113.08 22.3256C112.657 21.739 112.298 21.2494 111.971 20.7321C111.944 20.6859 111.245 20.7321 111.153 20.7275C110.867 20.709 110.582 20.6767 110.301 20.6351C109.142 20.4549 107.836 20.2286 106.828 19.5958C106.478 19.3787 106.267 18.8891 106.423 18.4688C106.561 18.0947 107.04 17.9838 107.371 18.0346C107.9 18.1131 108.337 18.4457 108.811 18.6582C109.202 18.8337 109.621 18.9584 110.044 19.0231C110.407 19.0785 110.835 19.1755 111.208 19.1386C111.157 18.6859 110.867 18.1824 110.633 17.7991C110.37 17.3695 110.048 16.9769 109.69 16.6305C109.409 16.358 109.11 16.1131 108.802 15.873C108.521 15.6513 108.153 15.4157 107.974 15.1062C107.725 14.6813 108.061 14.2055 108.452 14.0485C109.073 13.7991 109.777 14.4688 110.191 14.8476C110.573 15.2032 110.946 15.5727 111.245 16.0023C111.401 16.224 111.525 16.4596 111.636 16.709C111.677 16.8014 111.833 17.2864 111.939 17.2864C112.004 17.2864 112.036 17.254 112.068 17.254C113.885 17.254 114.856 17.1894 114.953 17.06C115.178 16.9954 115.311 16.8014 115.311 16.4088C115.311 16.0485 115.505 15.8222 115.96 15.7252C116.452 15.7344 117.133 15.776 117.202 16.2286Z" fill="black"/>
<path d="M119.797 3.59582C118.371 3.53116 116.554 3.46649 114.318 3.46649C112.307 3.53116 110.527 3.56349 108.967 3.62815C108.319 3.69282 108.029 4.29328 108.029 4.68589C108.029 5.20783 108.337 5.46649 108.677 5.57273C109 5.54039 109.749 5.50806 110.978 5.4434C111.884 5.41106 112.763 5.37873 113.605 5.3464V5.94224C113.605 6.33485 113.347 6.56118 112.827 6.69051C112.178 6.91684 111.291 7.11545 110.706 7.27712V7.0785C110.674 6.62123 110.449 6.36257 110.025 6.36257C109.634 6.36257 109.289 6.62123 109.193 7.14317L109.322 12.7413C109.322 14.7275 111.268 15.7021 114.575 15.7021C117.685 15.7021 119.42 14.7598 119.42 12.8706L119.581 7.0785C119.581 6.65356 119.222 6.42723 118.707 6.36257C118.315 6.45956 118.09 6.65356 117.993 6.9815V7.0785C117.474 6.9815 116.715 6.81984 115.905 6.62123C115.288 6.4919 114.999 6.22862 114.999 5.80829V5.3464H117.786C118.891 5.41106 119.571 5.4434 119.861 5.4434C120.317 5.4434 120.565 5.11083 120.565 4.65356C120.565 4.19628 120.317 3.62815 119.797 3.59582ZM117.837 12.9168C117.837 13.8268 115.859 14.0115 114.488 14.0115C112.827 14.0115 111.208 13.6974 110.982 12.7875H117.832V12.9168H117.837ZM117.869 11.4757L110.982 11.3972V10.6074H117.901L117.869 11.4757ZM116.066 7.8591C116.374 7.96534 116.682 8.06695 116.991 8.15471C117.05 8.17319 117.851 8.32561 117.851 8.34871L117.819 9.22631H110.982V8.60737L111.222 8.4919C111.41 8.41337 111.737 8.31638 112.666 7.9561C113.572 7.59582 114.157 7.40183 114.414 7.33716C114.506 7.31407 114.644 7.36487 114.732 7.38797C115.164 7.49882 115.569 7.68358 115.988 7.83139C116.015 7.84524 116.043 7.85448 116.066 7.8591Z" fill="black"/>
<path d="M129.15 17.9145V21.3972C129.278 21.3649 129.407 21.3325 129.573 21.2679C130.415 20.9769 130.838 20.4873 130.838 19.7713V16.4827C130.902 16.1917 131.096 16.0254 131.422 15.9607C131.878 15.9607 132.135 16.1547 132.135 16.515V19.8683C132.071 20.9446 131.859 21.6466 131.316 22.067C130.571 22.6212 129.752 22.7921 129.154 22.8753V26.321C129.706 26.4503 130.323 26.5889 131.036 26.5473C133.207 26.4319 135.392 26.515 137.555 26.7552C139.441 26.9677 141.562 27.1016 143.089 28.3626C143.618 28.7968 144.193 29.7991 143.949 30.5058C143.485 31.8591 141.787 30.7182 141.079 30.2656C137.711 28.1131 134.321 28.1824 130.157 28.0254C128.078 27.9469 126.624 27.4711 125.814 26.7552C124.485 25.5774 124.287 23.1016 124.135 21.388C124.071 20.9307 124.02 20.3672 124.02 19.6836C124.149 19.1616 124.788 18.8799 125.175 18.8799C125.695 18.8799 126.5 19.2078 126.5 19.6651C126.514 20.4919 126.21 21.3787 126.224 22.2055C126.233 22.8337 126.205 23.9977 126.454 24.5843C126.679 25.1247 127.024 25.448 127.498 25.7667C127.595 25.8314 127.691 25.8961 127.788 25.9284V17.8175C127.852 17.4942 128.046 17.3279 128.437 17.2956C128.892 17.3325 129.15 17.5265 129.15 17.9145Z" fill="black"/>
<path d="M131.579 4.83834C131.579 5.91456 130.479 6.81987 129.117 7.96074C127.369 9.10162 126.072 9.65128 125.225 9.65128C124.802 9.65128 124.577 9.42495 124.545 8.93534C124.545 8.67668 124.834 8.38107 125.419 8.09008C126.389 7.69747 126.974 7.24943 127.622 6.89377C128.657 6.3395 129.044 5.62356 129.462 4.34874C129.596 3.94227 130.116 3.62356 130.521 3.64666C131.063 3.67437 131.579 4.2425 131.579 4.83834Z" fill="black"/>
<path d="M132.485 14.0808C132.393 14.4457 131.873 14.6628 131.574 14.8152C131.123 15.0462 130.677 15.2864 130.217 15.5035C129.099 16.03 127.935 16.4596 126.826 17.0138C126.348 17.254 125.75 17.5912 125.198 17.5912C124.876 17.5912 124.678 17.3972 124.646 17.0046C124.614 16.612 125.736 16.0716 125.98 15.9238C126.859 15.3926 127.549 15 128.386 14.3995C128.883 14.0439 129.38 13.6882 129.904 13.3787C130.341 13.1201 130.962 12.7044 131.491 12.7229C131.97 12.7413 132.605 13.6005 132.485 14.0808Z" fill="black"/>
<path d="M131.961 9.32332C131.961 10.2332 130.576 11.1155 129.246 12.0901C127.562 13.0647 126.297 13.5543 125.488 13.5543C125.064 13.5543 124.839 13.3279 124.807 12.8383C124.807 12.6443 125.064 12.4134 125.649 12.1547C126.619 11.8314 127.171 11.4896 127.788 11.1617C128.303 10.8891 128.68 10.5704 128.979 10.0485C129.329 9.44341 129.771 8.15011 130.783 8.26558C131.201 8.31639 131.961 8.8799 131.961 9.32332Z" fill="black"/>
<path d="M142.666 4.34411C143.25 4.47806 143.54 4.78753 143.54 5.27713C143.54 6.03002 143.25 6.38568 142.666 6.38568C141.24 6.38568 140.186 6.38568 138.369 6.29792C137.007 6.29792 135.742 6.38568 133.994 6.47344C133.377 6.47344 133.055 6.11778 133.023 5.36489C133.023 5.00924 133.281 4.69977 133.801 4.43187C134.771 4.34411 136.037 4.25635 138.208 4.16397C139.57 4.16859 140.655 4.25635 142.666 4.34411Z" fill="black"/>
<path d="M143.379 16.5519C143.379 15.9653 142.795 15.545 141.663 15.3141C140.692 15.2494 139.685 15.2171 138.585 15.1524C137.223 15.1524 136.119 15.2494 135.277 15.3787C134.597 15.5727 134.141 15.9653 133.884 16.5519V20.9446C133.884 21.6605 133.948 22.4411 134.077 23.2217C134.334 24.6536 135.825 25.3372 138.613 25.3372C141.723 25.3372 143.315 24.6212 143.315 23.1894C143.443 22.7321 143.508 21.8868 143.508 20.6489C143.508 17.9515 143.443 16.5843 143.379 16.5519ZM135.526 17.582C135.526 17.1247 136.188 16.7044 138.024 16.866C138.088 17.776 137.992 18.6582 138.024 19.6328C137.214 19.6974 136.34 19.5496 135.397 19.5496C135.397 18.575 135.462 18.0392 135.526 17.582ZM138.024 23.2771C136.598 23.2125 135.788 23.1293 135.692 22.575C135.498 22.0854 135.402 21.3372 135.402 20.6536C136.34 20.5889 137.219 20.7182 138.029 20.6536C138.024 21.6974 138.056 22.3949 138.024 23.2771ZM139.137 16.903C140.89 16.769 141.833 16.8706 141.893 17.388C141.957 17.97 141.957 18.7228 141.99 19.6328C141.083 19.6004 140.108 19.5681 139.137 19.5358V16.903ZM141.994 20.8753C141.994 21.7205 141.865 22.3718 141.635 22.7644C141.442 23.2217 140.6 23.2032 139.137 23.2679C139.105 22.2933 139.137 21.5589 139.137 20.6489C140.172 20.6813 141.116 20.6813 141.99 20.6813V20.8753H141.994Z" fill="black"/>
<path d="M141.134 8.31177C141.005 8.30715 140.876 8.27482 140.747 8.26558C140.66 8.25634 140.573 8.24711 140.485 8.24249C140.393 8.23325 140.301 8.21015 140.214 8.25634C139.901 8.42263 139.542 8.56119 139.294 8.82909C139.05 9.08775 138.921 9.42032 138.751 9.72517C138.36 10.4042 138.01 11.1062 137.601 11.776C137.228 12.3857 136.8 12.9723 136.359 13.5312C136.303 13.5404 136.267 13.5496 136.211 13.5589C136.069 13.4757 135.935 13.3787 135.816 13.2587C134.813 12.2563 135.103 10.3302 136.464 8.9538C136.819 8.59353 137.214 8.33487 137.619 8.12701C136.51 8.15473 135.673 8.24711 135.162 8.41801C134.284 8.72286 133.879 9.53579 133.879 10.8568C133.911 12.1455 134.252 12.9584 134.859 13.2633C134.937 13.3002 134.997 13.3695 135.08 13.4065C135.204 13.4619 135.342 13.4942 135.475 13.5219C135.65 13.5589 135.83 13.5866 136.009 13.6097C136.198 13.6374 136.4 13.7021 136.593 13.6651C136.671 13.6513 136.704 13.6005 136.75 13.5404C136.796 13.4757 136.851 13.4157 136.911 13.3649C136.938 13.3418 137.076 13.2494 137.076 13.2171C137.076 13.194 137.177 13.1247 137.196 13.1062C137.242 13.0647 137.288 13.0231 137.334 12.9769C137.421 12.8984 137.49 12.8106 137.569 12.7229C137.771 12.5058 137.983 12.2979 138.121 12.03C138.3 11.6744 138.438 11.3002 138.599 10.9353C138.755 10.5751 138.944 10.224 139.151 9.88683C139.363 9.54041 139.634 9.26789 139.919 8.98152C140.154 8.75057 140.37 8.49191 140.646 8.30715C140.701 8.31177 140.738 8.31639 140.793 8.32101C141.746 9.33256 141.442 11.2263 140.103 12.5797C139.542 13.1478 138.884 13.5127 138.236 13.6975C138.259 13.6975 138.277 13.6975 138.305 13.6975C140.057 13.6975 141.208 13.5266 141.746 13.1894C142.353 12.9861 142.689 12.1732 142.689 10.7506C142.684 9.15704 142.146 8.3441 141.134 8.31177Z" fill="black"/>
<path d="M139.607 12.1686C139.478 12.3395 139.335 12.4965 139.202 12.672C139.045 12.8753 138.852 13.0462 138.709 13.2263C138.907 13.1247 139.257 12.9584 139.45 12.8383C139.625 12.6951 139.809 12.5612 139.965 12.3995C140.287 12.0762 140.563 11.7021 140.757 11.2771C140.945 10.8522 141.046 10.3857 141.037 9.91915C141.028 9.45725 140.918 8.99074 140.665 8.61661C140.72 8.69975 140.711 8.91684 140.715 9.01846C140.738 9.40183 140.678 9.79444 140.568 10.1593C140.352 10.8753 140.048 11.5727 139.607 12.1686Z" fill="black"/>
<path d="M66.514 6.96766C65.7688 6.96766 65.0235 6.97228 64.2736 6.97228C64.1678 8.82909 63.7906 10.6905 63.901 12.5427C64.0206 12.552 64.1356 12.5658 64.2552 12.575C64.3932 12.5889 64.5312 12.6074 64.6692 12.6212C65.5801 12.7275 66.6015 12.9307 67.3697 13.4573C68.1012 13.9607 68.5705 14.7737 68.7867 15.6235C69.0903 16.7875 69.7022 17.9561 70.6407 18.7552C71.1513 19.194 71.7126 19.4434 72.3429 19.6466C72.8121 19.7991 73.3412 19.9469 73.5528 20.4457C74.0588 21.6328 73.1019 22.672 71.57 22.672C70.5349 22.672 68.9569 22.0762 68.2208 21.3141C67.4939 20.5612 67.4663 18.9954 67.3835 17.9654C67.2685 16.6166 67.3881 15.545 66.0586 14.5843C65.7274 14.3441 65.2673 14.224 64.7751 14.1455C64.5542 14.1085 64.3288 14.0208 64.1034 14.0346C63.8366 14.0485 63.924 14.2517 63.924 14.455C63.924 14.6443 63.9102 14.8383 63.8412 15.0138C63.7215 15.3233 63.4271 15.5912 63.0959 15.5727C62.6266 15.545 62.369 14.9954 62.3414 14.5196C62.3368 14.4041 62.3322 14.2702 62.2448 14.1917C62.162 14.1178 62.0424 14.1224 61.9366 14.1316C59.4707 14.3441 58.546 17.0508 56.9864 18.6767C55.5649 20.164 52.708 20.0485 51.2634 18.6767C50.0673 17.5404 49.4094 15.933 49.0644 14.2887C48.8482 13.2679 49.1058 12.4226 50.2743 12.5935C50.9552 12.6951 51.3324 13.4757 51.6407 14.0069C52.0455 14.7136 52.5148 15.3326 53.237 15.7483C54.3734 16.4041 55.8593 15.8314 56.8024 15.0739C57.8743 14.2148 58.9324 13.3972 60.2574 12.9815C60.4184 12.9307 62.2632 12.5473 62.2632 12.649C62.2494 10.7644 62.6174 8.88452 62.6036 6.99999C61.1453 7.04618 59.6869 7.08775 58.2332 7.13394L57.2395 7.17551C56.8438 7.08775 56.1308 7.17551 55.7305 7.22632C55.091 7.30484 54.2031 6.50115 54.6678 5.65126C54.9668 5.10623 56.0111 5.27713 56.5126 5.25865C57.0278 5.24018 62.5392 5.10161 62.576 5.28175C62.4978 4.86142 62.4196 4.74595 62.5254 4.33025C62.6312 3.91454 62.9763 3.52655 63.4041 3.51731C63.8366 3.50807 64.1954 3.89607 64.3104 4.31177C64.4254 4.73209 64.3518 4.85219 64.2782 5.27713C66.5186 5.3187 68.6027 5.20784 70.8431 5.24941C71.2065 5.25403 71.5976 5.27251 71.8828 5.49422C72.1726 5.71593 72.4165 6.69976 72.1174 6.90761C71.9748 7.00461 71.7908 7.00923 71.616 7.00923C70.3416 7.00923 69.0627 7.01385 67.7884 7.01385L66.514 6.96766Z" fill="black"/>
<path d="M67.885 6.68127C67.3329 6.28866 66.8453 6.42723 65.847 6.97688C64.8487 7.52654 64.8717 9.42954 64.8717 9.42954C63.8826 13.8683 67.5307 13.1478 68.207 12.9215C68.8787 12.6951 68.9523 11.1663 69.0581 9.5173C69.1639 7.86834 68.437 7.07388 67.885 6.68127ZM66.4128 10.284C66.1828 10.4365 64.9683 10.7044 65.4651 9.1016C65.4651 9.1016 65.5801 8.68127 65.9574 8.72284C66.3392 8.75979 66.6797 8.79675 66.6429 9.1016C66.6014 9.40645 66.6383 10.1316 66.4128 10.284Z" fill="black"/>
<path d="M88.1777 26.5797C87.7683 26.3164 87.3036 26.1363 86.8804 25.8961C86.0891 25.448 85.3208 24.9446 84.6584 24.321C83.9361 23.642 83.4944 22.8337 83.0482 21.9561C81.5714 19.037 81.7048 15.6189 81.4656 12.4411C81.3598 11.0647 81.1942 10.5242 81.3644 9.1478C81.438 8.54272 81.7923 7.96074 81.8153 7.33718C81.8475 6.49191 81.9073 5.05081 81.2264 4.47806C80.5823 3.93302 77.1366 4.32101 76.4511 5.78984C76.1567 6.41801 76.8789 8.17783 77.27 8.77829C77.661 9.37875 78.5121 9.59122 78.7697 10.2471C79.4184 11.8868 79.6484 12.4411 79.6162 13.8915C79.5702 15.8591 79.9107 17.8083 79.607 19.7714C79.2666 21.9654 78.3097 24.0208 76.5891 25.4203C75.0847 26.6397 73.6632 27.1617 71.731 27.2263C69.1501 27.3095 66.8453 26.4919 64.7567 25C64.591 24.8845 64.3058 24.7413 64.2092 24.5704C64.1724 24.5058 64.9959 23.9561 65.0879 23.8868C65.7872 23.3603 66.3576 22.6998 66.8821 22.0023C67.3237 21.4111 67.0063 20.552 66.6843 20.0393C66.0448 19.0231 65.0419 18.1917 64.0252 17.5543C63.993 17.5219 64.1632 17.1339 64.177 17.0739C64.246 16.7875 64.2276 16.4226 64.0528 16.1778C63.8826 15.9423 63.5881 15.776 63.2615 15.776C63.0453 15.776 62.5392 15.8591 62.438 16.0439C62.2494 16.3857 62.3184 16.7737 62.1988 17.1339C61.8814 18.0993 61.0441 18.5242 60.1884 19.06C59.7053 19.3649 59.2637 19.7529 58.891 20.1824C58.408 20.7413 58.017 21.3464 57.2119 21.3649C56.8208 21.3741 56.1906 21.1155 55.8225 21.291C55.3625 21.5081 55.2935 22.649 55.6063 23.0462C56.6598 24.3903 59.0153 23.6697 59.6593 22.2979C59.7881 22.3995 59.7743 22.4642 59.8663 22.5982C60.0228 22.8199 60.1792 23.0462 60.3356 23.2679C60.6392 23.7021 60.9429 24.1363 61.2465 24.5704C61.3661 24.7691 60.0136 25.9007 59.8525 26.0023C58.6564 26.7413 57.9065 27.2956 56.3286 27.2587C55.6247 27.2402 55.045 25.9515 54.3136 26.1824C53.7017 26.3764 52.708 26.9954 53.1818 27.6882C53.3613 27.9469 53.8673 28.8522 54.0881 29.0739C54.5344 29.5127 54.9116 30.3118 55.8225 30.3857C56.4528 30.4365 56.8944 29.9053 57.3269 29.5312C57.9571 28.9861 58.8358 28.612 59.5903 28.2841C60.768 27.776 61.6835 26.9861 62.6266 26.1224C64.1954 27.9746 66.3162 29.3326 68.6947 29.8453C70.5625 30.2471 72.5039 30.164 74.3671 29.7575C75.9082 29.4203 77.4356 28.8014 78.5489 27.679C80.0901 26.127 80.6375 23.8591 81.0102 21.6975C81.3966 23.2771 81.7877 24.866 82.3811 26.3811C82.6433 27.0508 82.9056 27.7298 83.2966 28.3349C83.7475 29.0369 84.2765 29.6466 85.1736 29.4942C85.9971 29.3557 86.7746 28.94 87.5061 28.5566C87.7775 28.418 88.0397 28.2702 88.3157 28.1316C88.5642 28.0069 88.8264 27.7991 88.8586 27.5035C88.8816 27.2679 88.7482 27.0369 88.5734 26.8753C88.4446 26.7691 88.3111 26.6721 88.1777 26.5797ZM62.5806 23.2956C61.8676 22.4503 61.5547 21.9792 61.0993 21.097C61.0533 21.0046 61.7939 20.455 61.8676 20.4042C61.9918 20.321 63.2017 19.2032 63.1787 19.1755C63.6203 19.6282 64.177 20.03 64.499 20.5843C64.6831 20.8938 64.7429 21.254 64.5818 21.5866C64.384 21.9977 64.0436 22.3164 63.6847 22.5843C63.6019 22.649 62.6082 23.3326 62.5806 23.2956Z" fill="black"/>
<path d="M81.8153 4.42261C81.8337 4.23785 81.8613 4.04848 81.8935 3.86834C81.9349 3.65587 82.0867 3.11545 82.3259 3.03231C82.6203 2.93069 83.0022 3.08774 83.1172 3.4203C83.1862 3.6143 83.0988 3.82215 82.9424 3.94224C82.786 4.06695 82.5881 4.13162 82.4041 4.21014C82.2155 4.28866 82.0177 4.36718 81.8153 4.42261Z" fill="black"/>
<path d="M82.5927 4.56582C82.7584 4.4873 82.9286 4.42263 83.1034 4.36259C83.3012 4.2933 83.8395 4.15935 84.0235 4.32564C84.2535 4.52887 84.3087 4.93072 84.0787 5.194C83.9499 5.34642 83.7291 5.37414 83.5542 5.30023C83.3748 5.22633 83.2184 5.08776 83.0666 4.97229C82.901 4.84296 82.74 4.70901 82.5927 4.56582Z" fill="black"/>
</g>
<defs>
<clipPath id="clip0_2102_51">
<rect width="42.0678" height="42.0678" fill="white"/>
</clipPath>
<clipPath id="clip1_2102_51">
<rect width="95" height="36" fill="white" transform="translate(49 3)"/>
</clipPath>
</defs>
</svg>
